<svg id="Capa_1" enable-background="new 0 0 512 512" height="512" viewBox="0 0 512 512" width="512" xmlns="http://www.w3.org/2000/svg"><g><path d="m437.02 74.98c-48.353-48.351-112.64-74.98-181.02-74.98l-20.016 256 20.016 256c68.38 0 132.667-26.629 181.02-74.98 48.351-48.353 74.98-112.64 74.98-181.02s-26.629-132.667-74.98-181.02z" fill="#ffde55"/><path d="m74.98 74.98c-48.351 48.353-74.98 112.64-74.98 181.02s26.629 132.667 74.98 181.02c48.353 48.351 112.64 74.98 181.02 74.98v-512c-68.38 0-132.667 26.629-181.02 74.98z" fill="#fff79f"/><path d="m462.185 230.302h-181.153v-180.531l17.48 2.931c82.036 13.755 146.602 78.08 160.664 160.063z" fill="#ff9f22"/><path d="m230.968 230.302h-181.153l3.008-17.536c14.062-81.983 78.629-146.309 160.665-160.063l17.48-2.931z" fill="#ffde55"/><path d="m230.968 462.229-17.48-2.931c-40.409-6.775-77.156-25.799-106.268-55.014-29.119-29.223-48.012-66.048-54.637-106.494l-2.854-17.425h181.239z" fill="#ffde55"/><path d="m281.032 462.229v-181.864h181.239l-2.854 17.425c-6.625 40.446-25.519 77.271-54.637 106.494-29.112 29.215-65.858 48.238-106.268 55.014z" fill="#ff9f22"/><path d="m311.032 86.2v48.174c30.02 12.121 54.027 35.998 66.322 65.928h48.258c-15.782-55.23-59.281-98.551-114.58-114.102z" fill="#ffde55"/><path d="m86.387 200.302h48.259c12.295-29.931 36.302-53.807 66.322-65.928v-48.174c-55.299 15.551-98.798 58.872-114.581 114.102z" fill="#fff79f"/><path d="m134.101 310.365h-48.092c7.565 27.371 22.046 52.255 42.462 72.743 20.392 20.464 45.192 35.024 72.497 42.696v-48.178c-30.465-12.3-54.743-36.705-66.867-67.261z" fill="#fff79f"/><path d="m377.899 310.365c-12.124 30.555-36.402 54.96-66.867 67.261v48.179c27.305-7.672 52.105-22.232 72.497-42.696 20.416-20.488 34.896-45.372 42.461-72.743h-48.091z" fill="#ffde55"/></g></svg>